<svg width="365" height="356" viewBox="0 0 365 356" fill="none" xmlns="http://www.w3.org/2000/svg">
<g clip-path="url(#clip0_504_1282)">
<path d="M112.713 261.153H66.9929C65.8402 261.153 64.9023 260.216 64.9023 259.065C64.9023 257.913 65.8402 256.977 66.9929 256.977H112.713C113.866 256.977 114.804 257.913 114.804 259.065C114.804 260.216 113.866 261.153 112.713 261.153Z" fill="#6C63FF"/>
<path d="M31.0586 272.331C31.0586 272.706 31.3602 273.007 31.7357 273.007H147.97C148.346 273.007 148.647 272.706 148.647 272.331C148.647 271.956 148.346 271.654 147.97 271.654H31.7357C31.3602 271.654 31.0586 271.956 31.0586 272.331Z" fill="#3F3D56"/>
<path d="M276.295 136.061C296.72 136.061 313.278 119.522 313.278 99.1195C313.278 78.7171 296.72 62.1777 276.295 62.1777C255.87 62.1777 239.312 78.7171 239.312 99.1195C239.312 119.522 255.87 136.061 276.295 136.061Z" fill="#FF6884"/>
<path d="M0 319.011C0 319.386 0.30157 319.687 0.677106 319.687H297.843C298.219 319.687 298.52 319.386 298.52 319.011C298.52 318.636 298.219 318.335 297.843 318.335H0.677106C0.30157 318.335 0 318.636 0 319.011Z" fill="#3F3D56"/>
<path d="M4.29826 273.339L3.34766 272.298L96.1257 187.732L129.552 202.7L165.647 140.868L195.303 126.59L222.78 172.334C237.614 133.972 274.818 93.8364 319.397 53.1162L320.493 54.0031C278.682 93.988 242.91 134.154 222.608 174.786L197.193 132.35C195.992 130.345 193.469 129.571 191.349 130.556C175.138 138.091 161.617 150.389 152.593 165.806L129.983 204.437L124.822 202.125C107.56 194.396 87.3529 197.636 73.3796 210.372L4.29826 273.339Z" fill="#3F3D56"/>
<path d="M321.488 60.8153L320.079 60.913L317.807 55.9926L312.718 54.9601L312.52 53.5635L320.908 52.3728L321.488 60.8153Z" fill="#3F3D56"/>
<path d="M176.77 90.9222L181.757 71.7709L201.185 70.8374L206.998 97.2368L176.77 90.9222Z" fill="#FFB6B6"/>
<path opacity="0.1" d="M176.77 90.9222L181.757 71.7709L201.185 70.8374L206.998 97.2368L176.77 90.9222Z" fill="black"/>
<path d="M189.554 82.4884C202.505 82.4884 213.004 72.0009 213.004 59.0638C213.004 46.1267 202.505 35.6392 189.554 35.6392C176.602 35.6392 166.103 46.1267 166.103 59.0638C166.103 72.0009 176.602 82.4884 189.554 82.4884Z" fill="#FFB6B6"/>
<path d="M202.492 64.0221C202.492 64.0221 193.584 46.391 183.146 47.4089C172.708 48.4268 167.209 49.6648 167.209 49.6648C167.209 49.6648 164.111 35.9328 178.698 30.6508C178.698 30.6508 160.151 12.388 182.233 3.42929C204.315 -5.52942 216.672 5.89628 216.672 5.89628C216.672 5.89628 233.017 22.1958 212.43 34.3782C212.43 34.3782 227.717 54.9171 209.209 71.8458C209.209 71.8458 213.349 58.1467 209.029 60.6731C204.71 63.1994 202.492 64.0221 202.492 64.0221Z" fill="#2F2E41"/>
<path d="M163.68 187.784L160.561 190.771L138.025 239.037L135.559 318.872H173.421L191.182 279.336L203.149 318.49H237.192L245.084 247.414L223.87 197.148L163.68 187.784Z" fill="#2F2E41"/>
<path d="M202.902 88.9761H177.616L150.112 103.76L156.526 132.343C156.526 132.343 155.046 149.592 158.499 162.405C161.953 175.218 160.473 191.973 160.473 191.973L223.869 197.148L225.843 138.996L224.856 100.064L202.902 88.9761Z" fill="#E6E6E6"/>
<path d="M154.306 104.007C154.306 104.007 139.012 104.5 136.545 114.356C134.078 124.212 132.105 174.971 132.105 174.971C132.105 174.971 133.585 205.091 150.113 190.77C166.64 176.45 165.16 133.083 165.16 133.083L154.306 104.007Z" fill="#E6E6E6"/>
<path d="M302.649 355.432H212.52C209.467 355.432 206.984 352.951 206.984 349.902V256.833C206.984 253.783 209.467 251.303 212.52 251.303H302.649C305.702 251.303 308.185 253.783 308.185 256.833V349.902C308.185 352.951 305.702 355.432 302.649 355.432Z" fill="white"/>
<path d="M302.649 356H212.52C209.154 356 206.415 353.265 206.415 349.902V256.833C206.415 253.47 209.154 250.735 212.52 250.735H302.649C306.015 250.735 308.754 253.47 308.754 256.833V349.902C308.754 353.265 306.015 356 302.649 356ZM212.52 251.871C209.781 251.871 207.553 254.097 207.553 256.833V349.902C207.553 352.638 209.781 354.863 212.52 354.863H302.649C305.388 354.863 307.616 352.638 307.616 349.902V256.833C307.616 254.097 305.388 251.871 302.649 251.871H212.52Z" fill="#3F3D56"/>
<path d="M261.141 330.981H253.713C252.808 330.981 252.073 330.414 252.073 329.717V297.77C252.073 297.072 252.808 296.505 253.713 296.505H261.141C262.046 296.505 262.782 297.072 262.782 297.77V329.717C262.782 330.414 262.046 330.981 261.141 330.981Z" fill="#6C63FF"/>
<path d="M236.582 312.155C235.851 312.155 235.257 312.613 235.257 313.176V329.681C235.257 330.244 235.851 330.703 236.582 330.703H244.011C244.741 330.703 245.336 330.244 245.336 329.681V313.176C245.336 312.613 244.741 312.155 244.011 312.155H236.582Z" fill="#6C63FF"/>
<path d="M278.272 330.981H270.843C269.939 330.981 269.203 330.414 269.203 329.717V277.361C269.203 276.664 269.939 276.097 270.843 276.097H278.272C279.176 276.097 279.912 276.664 279.912 277.361V329.717C279.912 330.414 279.176 330.981 278.272 330.981Z" fill="#6C63FF"/>
<path d="M118.416 101.489H109.931C108.898 101.489 108.057 100.841 108.057 100.044V63.5515C108.057 62.7549 108.898 62.1069 109.931 62.1069H118.416C119.449 62.1069 120.29 62.7549 120.29 63.5515V100.044C120.29 100.841 119.449 101.489 118.416 101.489Z" fill="#6C63FF"/>
<path d="M90.3624 79.9832C89.5278 79.9832 88.8486 80.5068 88.8486 81.1503V100.003C88.8486 100.647 89.5278 101.17 90.3624 101.17H98.8479C99.6826 101.17 100.362 100.647 100.362 100.003V81.1503C100.362 80.5068 99.6826 79.9832 98.8479 79.9832H90.3624Z" fill="#6C63FF"/>
<path d="M137.984 101.489H129.499C128.465 101.489 127.625 100.841 127.625 100.044V40.2393C127.625 39.4427 128.465 38.7947 129.499 38.7947H137.984C139.017 38.7947 139.858 39.4427 139.858 40.2393V100.044C139.858 100.841 139.017 101.489 137.984 101.489Z" fill="#6C63FF"/>
<path d="M243.767 264.844C248.162 264.424 251.188 258.491 250.527 251.591C250.301 248.83 249.416 246.164 247.947 243.816L247.1 236.006L247.23 235.967L249.359 198.935C249.854 190.325 246.442 181.864 239.868 176.273C235.957 172.947 231.785 171.263 229.102 175.466C224.651 182.439 230.417 211.184 234.203 227.526L235.671 244.99C234.674 247.575 234.311 250.361 234.613 253.115C235.273 260.013 239.372 265.265 243.767 264.844Z" fill="#FFB6B6"/>
<path d="M219.429 101.05C219.429 101.05 232.257 96.1219 238.177 110.906C244.097 125.69 250.511 198.626 250.511 198.626L220.416 193.205L219.429 101.05Z" fill="#E6E6E6"/>
<path d="M43.2939 93.8186H26.0217C24.869 93.8186 23.9312 92.8817 23.9312 91.7304C23.9312 90.579 24.869 89.6426 26.0217 89.6426H43.2939C44.4466 89.6426 45.384 90.579 45.384 91.7304C45.384 92.8817 44.4466 93.8186 43.2939 93.8186Z" fill="#E6E6E6"/>
<path d="M43.2939 64.2202H26.0217C24.869 64.2202 23.9312 63.2833 23.9312 62.132C23.9312 60.9806 24.869 60.0442 26.0217 60.0442H43.2939C44.4466 60.0442 45.384 60.9806 45.384 62.132C45.384 63.2834 44.4466 64.2202 43.2939 64.2202Z" fill="#E6E6E6"/>
<path d="M43.2939 42.8752H26.0217C24.869 42.8752 23.9312 41.9384 23.9312 40.787C23.9312 39.6356 24.869 38.6992 26.0217 38.6992H43.2939C44.4466 38.6992 45.384 39.6356 45.384 40.787C45.384 41.9384 44.4466 42.8752 43.2939 42.8752Z" fill="#E6E6E6"/>
<path d="M23.2383 101.592C23.2383 101.967 23.5399 102.268 23.9154 102.268H140.15C140.525 102.268 140.827 101.967 140.827 101.592C140.827 101.217 140.525 100.916 140.15 100.916H23.9154C23.5399 100.916 23.2383 101.217 23.2383 101.592Z" fill="#3F3D56"/>
<path d="M247.412 276.639C247.412 277.014 247.713 277.315 248.089 277.315H364.323C364.699 277.315 365 277.014 365 276.639C365 276.264 364.699 275.963 364.323 275.963H248.089C247.713 275.963 247.412 276.264 247.412 276.639Z" fill="#3F3D56"/>
<path d="M213.273 331.767C213.273 332.143 213.575 332.444 213.951 332.444H330.185C330.56 332.444 330.862 332.143 330.862 331.767C330.862 331.392 330.56 331.091 330.185 331.091H213.951C213.575 331.091 213.273 331.392 213.273 331.767Z" fill="#3F3D56"/>
<path d="M135.111 98.1727C130.716 98.5931 127.69 104.526 128.351 111.426C128.577 114.187 129.462 116.853 130.931 119.201L131.778 127.011L131.649 127.05L129.519 164.082C129.024 172.692 132.436 181.153 139.01 186.744C142.921 190.07 147.093 191.754 149.776 187.551C154.227 180.578 148.461 151.833 144.675 135.491L143.207 118.027C144.204 115.442 144.567 112.656 144.265 109.902C143.605 103.004 139.506 97.7524 135.111 98.1727Z" fill="#FFB6B6"/>
</g>
<defs>
<clipPath id="clip0_504_1282">
<rect width="365" height="356" fill="white"/>
</clipPath>
</defs>
</svg>
