<svg width="2430" height="383" viewBox="0 0 2430 383" fill="none" xmlns="http://www.w3.org/2000/svg">
<g filter="url(#filter0_d_216_7)">
<path d="M777 297.989V71.0802H863.864C880.262 71.0802 893.89 73.6654 904.748 78.8358C915.679 83.9324 923.841 90.9126 929.233 99.7762C934.699 108.64 937.432 118.685 937.432 129.913C937.432 139.146 935.66 147.049 932.114 153.623C928.569 160.123 923.804 165.404 917.821 169.467C911.839 173.529 905.154 176.447 897.767 178.219V180.435C905.819 180.878 913.537 183.353 920.924 187.859C928.384 192.29 934.478 198.569 939.205 206.694C943.932 214.819 946.296 224.643 946.296 236.165C946.296 247.91 943.452 258.472 937.765 267.853C932.077 277.16 923.509 284.509 912.06 289.901C900.611 295.293 886.208 297.989 868.85 297.989H777ZM818.106 263.643H862.313C877.233 263.643 887.981 260.799 894.554 255.111C901.202 249.35 904.526 241.964 904.526 232.952C904.526 226.231 902.864 220.174 899.54 214.782C896.216 209.316 891.489 205.032 885.358 201.93C879.228 198.753 871.915 197.165 863.421 197.165H818.106V263.643ZM818.106 167.583H858.767C865.858 167.583 872.248 166.29 877.935 163.705C883.623 161.046 888.091 157.316 891.341 152.515C894.665 147.64 896.327 141.878 896.327 135.231C896.327 126.441 893.225 119.202 887.02 113.515C880.89 107.827 871.767 104.984 859.654 104.984H818.106V167.583ZM1020.39 71.0802V297.989H980.282V71.0802H1020.39ZM1135.87 301.313C1119.25 301.313 1104.84 297.657 1092.66 290.344C1080.47 283.032 1071.01 272.802 1064.29 259.654C1057.65 246.506 1054.32 231.143 1054.32 213.563C1054.32 195.984 1057.65 180.583 1064.29 167.361C1071.01 154.14 1080.47 143.873 1092.66 136.56C1104.84 129.248 1119.25 125.592 1135.87 125.592C1152.49 125.592 1166.89 129.248 1179.08 136.56C1191.26 143.873 1200.68 154.14 1207.33 167.361C1214.05 180.583 1217.41 195.984 1217.41 213.563C1217.41 231.143 1214.05 246.506 1207.33 259.654C1200.68 272.802 1191.26 283.032 1179.08 290.344C1166.89 297.657 1152.49 301.313 1135.87 301.313ZM1136.09 269.182C1145.1 269.182 1152.63 266.708 1158.69 261.759C1164.75 256.736 1169.25 250.015 1172.21 241.594C1175.24 233.174 1176.75 223.793 1176.75 213.452C1176.75 203.038 1175.24 193.62 1172.21 185.199C1169.25 176.705 1164.75 169.947 1158.69 164.924C1152.63 159.901 1145.1 157.39 1136.09 157.39C1126.86 157.39 1119.17 159.901 1113.04 164.924C1106.99 169.947 1102.44 176.705 1099.42 185.199C1096.46 193.62 1094.98 203.038 1094.98 213.452C1094.98 223.793 1096.46 233.174 1099.42 241.594C1102.44 250.015 1106.99 256.736 1113.04 261.759C1119.17 266.708 1126.86 269.182 1136.09 269.182ZM1325.69 301.313C1308.7 301.313 1294.11 297.583 1281.92 290.123C1269.81 282.663 1260.47 272.359 1253.89 259.211C1247.39 245.989 1244.14 230.773 1244.14 213.563C1244.14 196.279 1247.47 181.026 1254.11 167.805C1260.76 154.509 1270.14 144.168 1282.26 136.782C1294.44 129.322 1308.85 125.592 1325.47 125.592C1339.28 125.592 1351.5 128.14 1362.14 133.236C1372.85 138.259 1381.38 145.387 1387.73 154.62C1394.08 163.779 1397.7 174.489 1398.59 186.751H1360.26C1358.7 178.552 1355.01 171.719 1349.18 166.253C1343.41 160.714 1335.7 157.944 1326.02 157.944C1317.82 157.944 1310.62 160.16 1304.41 164.592C1298.21 168.949 1293.37 175.228 1289.9 183.427C1286.5 191.626 1284.8 201.449 1284.8 212.898C1284.8 224.495 1286.5 234.467 1289.9 242.813C1293.3 251.086 1298.06 257.475 1304.19 261.981C1310.4 266.413 1317.67 268.628 1326.02 268.628C1331.93 268.628 1337.21 267.521 1341.86 265.305C1346.59 263.015 1350.54 259.728 1353.72 255.444C1356.89 251.16 1359.07 245.952 1360.26 239.822H1398.59C1397.63 251.861 1394.08 262.535 1387.95 271.842C1381.82 281.074 1373.48 288.313 1362.91 293.557C1352.35 298.728 1339.94 301.313 1325.69 301.313ZM1468.09 244.586L1467.98 196.168H1474.4L1535.56 127.807H1582.43L1507.2 211.569H1498.89L1468.09 244.586ZM1431.52 297.989V71.0802H1471.63V297.989H1431.52ZM1538.33 297.989L1482.93 220.543L1509.97 192.29L1586.31 297.989H1538.33ZM1583.29 105.538V71.0802H1764.33V105.538H1694.19V297.989H1653.42V105.538H1583.29ZM1779.78 297.989V127.807H1818.67V156.171H1820.44C1823.55 146.347 1828.86 138.776 1836.4 133.458C1844.01 128.066 1852.69 125.37 1862.44 125.37C1864.65 125.37 1867.13 125.481 1869.86 125.702C1872.67 125.85 1874.99 126.109 1876.84 126.478V163.373C1875.14 162.782 1872.44 162.265 1868.75 161.822C1865.13 161.305 1861.62 161.046 1858.23 161.046C1850.91 161.046 1844.34 162.634 1838.5 165.81C1832.74 168.913 1828.2 173.234 1824.88 178.773C1821.55 184.313 1819.89 190.702 1819.89 197.941V297.989H1779.78ZM1949.41 301.424C1938.63 301.424 1928.91 299.503 1920.27 295.663C1911.7 291.748 1904.91 285.986 1899.88 278.378C1894.94 270.771 1892.46 261.39 1892.46 250.236C1892.46 240.634 1894.23 232.694 1897.78 226.415C1901.33 220.137 1906.16 215.114 1912.29 211.347C1918.42 207.58 1925.33 204.736 1933.01 202.816C1940.77 200.822 1948.78 199.381 1957.06 198.495C1967.03 197.461 1975.11 196.538 1981.32 195.725C1987.52 194.839 1992.03 193.509 1994.84 191.736C1997.72 189.89 1999.16 187.046 1999.16 183.205V182.54C1999.16 174.194 1996.68 167.731 1991.73 163.151C1986.79 158.572 1979.66 156.282 1970.35 156.282C1960.53 156.282 1952.73 158.424 1946.97 162.708C1941.29 166.992 1937.44 172.052 1935.45 177.887L1898 172.569C1900.96 162.228 1905.83 153.586 1912.63 146.643C1919.42 139.626 1927.73 134.381 1937.56 130.91C1947.38 127.364 1958.24 125.592 1970.13 125.592C1978.33 125.592 1986.49 126.552 1994.61 128.472C2002.74 130.393 2010.16 133.569 2016.88 138.001C2023.61 142.359 2029 148.305 2033.06 155.839C2037.2 163.373 2039.27 172.79 2039.27 184.092V297.989H2000.71V274.611H1999.38C1996.94 279.339 1993.51 283.771 1989.08 287.907C1984.72 291.969 1979.21 295.256 1972.57 297.768C1965.99 300.205 1958.27 301.424 1949.41 301.424ZM1959.83 271.952C1967.88 271.952 1974.86 270.364 1980.77 267.188C1986.67 263.938 1991.22 259.654 1994.39 254.336C1997.64 249.018 1999.27 243.219 1999.27 236.941V216.887C1998.01 217.921 1995.87 218.881 1992.84 219.768C1989.89 220.654 1986.56 221.43 1982.87 222.094C1979.18 222.759 1975.52 223.35 1971.9 223.867C1968.28 224.384 1965.14 224.827 1962.48 225.197C1956.5 226.009 1951.15 227.339 1946.42 229.185C1941.69 231.032 1937.96 233.617 1935.23 236.941C1932.5 240.191 1931.13 244.401 1931.13 249.572C1931.13 256.958 1933.83 262.535 1939.22 266.302C1944.61 270.069 1951.48 271.952 1959.83 271.952ZM2079.59 297.989V127.807H2119.7V297.989H2079.59ZM2099.76 103.654C2093.41 103.654 2087.94 101.549 2083.36 97.3387C2078.78 93.0546 2076.49 87.9211 2076.49 81.9381C2076.49 75.8813 2078.78 70.7478 2083.36 66.5375C2087.94 62.2535 2093.41 60.1114 2099.76 60.1114C2106.19 60.1114 2111.65 62.2535 2116.16 66.5375C2120.74 70.7478 2123.03 75.8813 2123.03 81.9381C2123.03 87.9211 2120.74 93.0546 2116.16 97.3387C2111.65 101.549 2106.19 103.654 2099.76 103.654ZM2201.05 198.273V297.989H2160.95V127.807H2199.28V156.725H2201.28C2205.19 147.197 2211.43 139.626 2220 134.012C2228.64 128.398 2239.32 125.592 2252.02 125.592C2263.76 125.592 2273.99 128.103 2282.71 133.126C2291.5 138.148 2298.3 145.424 2303.1 154.952C2307.97 164.481 2310.37 176.04 2310.3 189.631V297.989H2270.19V195.836C2270.19 184.461 2267.24 175.56 2261.33 169.134C2255.49 162.708 2247.4 159.495 2237.06 159.495C2230.05 159.495 2223.8 161.046 2218.34 164.148C2212.95 167.177 2208.7 171.572 2205.6 177.333C2202.57 183.094 2201.05 190.074 2201.05 198.273Z" fill="white"/>
</g>
<g filter="url(#filter1_d_216_7)">
<path d="M628 83.2H552.6V0H453.8V158.6H178.2V0H79.4V83.2H4V291.2H79.4V374.4H178.2V215.8H453.8V374.4H552.6V291.2H628V83.2Z" fill="white"/>
</g>
<defs>
<filter id="filter0_d_216_7" x="773" y="60.1113" width="1541.41" height="249.312" filterUnits="userSpaceOnUse" color-interpolation-filters="sRGB">
<feFlood flood-opacity="0" result="BackgroundImageFix"/>
<feColorMatrix in="SourceAlpha" type="matrix" values="0 0 0 0 0 0 0 0 0 0 0 0 0 0 0 0 0 0 127 0" result="hardAlpha"/>
<feOffset dy="4"/>
<feGaussianBlur stdDeviation="2"/>
<feComposite in2="hardAlpha" operator="out"/>
<feColorMatrix type="matrix" values="0 0 0 0 0 0 0 0 0 0 0 0 0 0 0 0 0 0 0.25 0"/>
<feBlend mode="normal" in2="BackgroundImageFix" result="effect1_dropShadow_216_7"/>
<feBlend mode="normal" in="SourceGraphic" in2="effect1_dropShadow_216_7" result="shape"/>
</filter>
<filter id="filter1_d_216_7" x="0" y="0" width="632" height="382.4" filterUnits="userSpaceOnUse" color-interpolation-filters="sRGB">
<feFlood flood-opacity="0" result="BackgroundImageFix"/>
<feColorMatrix in="SourceAlpha" type="matrix" values="0 0 0 0 0 0 0 0 0 0 0 0 0 0 0 0 0 0 127 0" result="hardAlpha"/>
<feOffset dy="4"/>
<feGaussianBlur stdDeviation="2"/>
<feComposite in2="hardAlpha" operator="out"/>
<feColorMatrix type="matrix" values="0 0 0 0 0 0 0 0 0 0 0 0 0 0 0 0 0 0 0.25 0"/>
<feBlend mode="normal" in2="BackgroundImageFix" result="effect1_dropShadow_216_7"/>
<feBlend mode="normal" in="SourceGraphic" in2="effect1_dropShadow_216_7" result="shape"/>
</filter>
</defs>
</svg>
