<svg width="100" height="100" viewBox="0 0 100 100" fill="none" xmlns="http://www.w3.org/2000/svg">
<path d="M29.1768 42.0537C29.2513 41.9503 29.3388 41.8515 29.4323 41.7648C41.3636 30.7054 53.6171 30.3817 67.1606 38.5656C68.5406 39.3996 70.3581 38.4408 70.3408 36.8284C70.2702 30.252 70.0835 24.7198 70.5486 19.243C70.6628 17.8983 71.3787 16.6048 72.2263 15.3225C73.1329 13.9508 75.5032 14.064 76.2861 15.5099C77.0598 16.9387 77.7127 18.3708 77.7513 19.8192C78.0987 32.8645 78.0233 45.9255 77.8787 58.9785C77.721 73.2111 70.4711 83.3394 57.9257 87.3074C46.5091 90.9184 34.2294 86.7639 27.2012 76.9127C19.7111 66.414 20.2601 54.4195 29.1768 42.0537ZM67.9138 70.7043C68.0019 70.5973 68.0806 70.478 68.1435 70.3545C72.568 61.6655 71.4817 53.4782 64.8678 46.4879C59.2983 40.6015 52.2655 38.589 44.1894 41.1203C35.8202 43.7435 31.1933 49.4464 29.871 57.9426C28.5204 66.6198 33.5112 75.7646 41.4409 79.4143C50.6745 83.6642 59.3103 81.1424 67.9138 70.7043Z" fill="white"/>
</svg>
