<svg width="95" height="36" viewBox="0 0 95 36" fill="none" xmlns="http://www.w3.org/2000/svg">
<path d="M6.50636 9.456V21.44C6.50636 22.8213 6.77703 23.8573 7.31836 24.548C7.85969 25.22 8.76503 25.556 10.0344 25.556C11.3037 25.556 12.209 25.22 12.7504 24.548C13.2917 23.8573 13.5624 22.8213 13.5624 21.44V9.456H17.7064V20.992C17.7064 22.4293 17.5664 23.68 17.2864 24.744C17.025 25.7893 16.5864 26.6573 15.9704 27.348C15.3544 28.02 14.561 28.524 13.5904 28.86C12.6197 29.1773 11.4344 29.336 10.0344 29.336C8.63436 29.336 7.44903 29.1773 6.47836 28.86C5.50769 28.524 4.71436 28.02 4.09836 27.348C3.48236 26.6573 3.03436 25.7893 2.75436 24.744C2.49303 23.68 2.36236 22.4293 2.36236 20.992V9.456H6.50636ZM21.6918 14.3H25.8358V16.764H25.9758C26.1811 15.9427 26.6478 15.2707 27.3758 14.748C28.1224 14.2253 28.9718 13.964 29.9238 13.964C31.7904 13.964 33.1998 14.6173 34.1518 15.924C35.1038 17.2307 35.5798 19.1347 35.5798 21.636C35.5798 24.1373 35.1038 26.0507 34.1518 27.376C33.1998 28.6827 31.7904 29.336 29.9238 29.336C29.4384 29.336 28.9811 29.2613 28.5518 29.112C28.1224 28.9813 27.7304 28.7947 27.3758 28.552C27.0398 28.2907 26.7504 27.992 26.5078 27.656C26.2651 27.3013 26.0878 26.928 25.9758 26.536H25.8358V34.6H21.6918V14.3ZM28.5518 25.976C29.3358 25.976 29.9798 25.7053 30.4838 25.164C31.0064 24.604 31.2678 23.8573 31.2678 22.924V20.376C31.2678 19.4427 31.0064 18.7053 30.4838 18.164C29.9798 17.604 29.3358 17.324 28.5518 17.324C27.7678 17.324 27.1144 17.52 26.5918 17.912C26.0878 18.2853 25.8358 18.808 25.8358 19.48V23.82C25.8358 24.492 26.0878 25.024 26.5918 25.416C27.1144 25.7893 27.7678 25.976 28.5518 25.976ZM52.0549 26.144H51.9709C51.7283 27.0587 51.1309 27.824 50.1789 28.44C49.2456 29.0373 48.0323 29.336 46.5389 29.336C45.3443 29.336 44.2429 29.1213 43.2349 28.692C42.2456 28.244 41.3963 27.6 40.6869 26.76C39.9776 25.9013 39.4176 24.8467 39.0069 23.596C38.6149 22.3267 38.4189 20.8707 38.4189 19.228C38.4189 17.604 38.6149 16.1667 39.0069 14.916C39.3989 13.6467 39.9589 12.592 40.6869 11.752C41.4149 10.8933 42.2923 10.24 43.3189 9.792C44.3456 9.344 45.4843 9.12 46.7349 9.12C48.4896 9.12 49.9549 9.512 51.1309 10.296C52.3069 11.08 53.2123 12.116 53.8469 13.404L51.9149 14.58C51.4669 13.5347 50.7949 12.7133 49.8989 12.116C49.0216 11.5187 47.9669 11.22 46.7349 11.22C45.8763 11.22 45.0923 11.3787 44.3829 11.696C43.6736 11.9947 43.0576 12.424 42.5349 12.984C42.0309 13.544 41.6389 14.216 41.3589 15C41.0789 15.784 40.9389 16.6613 40.9389 17.632V20.796C40.9389 21.7667 41.0789 22.6533 41.3589 23.456C41.6389 24.24 42.0309 24.912 42.5349 25.472C43.0576 26.032 43.6923 26.4707 44.4389 26.788C45.1856 27.0867 46.0256 27.236 46.9589 27.236C47.6309 27.236 48.2656 27.152 48.8629 26.984C49.4789 26.7973 50.0109 26.5267 50.4589 26.172C50.9256 25.8173 51.2896 25.3787 51.5509 24.856C51.8123 24.3147 51.9429 23.68 51.9429 22.952V21.02H47.6309V18.948H54.2389V29H52.0549V26.144ZM67.5477 14.552H69.7597L63.2917 32.36C63.1237 32.7893 62.9557 33.144 62.7877 33.424C62.6197 33.7227 62.4143 33.956 62.1717 34.124C61.929 34.292 61.621 34.4133 61.2477 34.488C60.893 34.5627 60.4543 34.6 59.9317 34.6H58.7837V32.64H61.0517L62.1437 29.56L56.7397 14.552H58.9797L62.4517 24.38L63.1237 26.732H63.2637L64.0477 24.38L67.5477 14.552ZM72.6163 29V14.552H74.8563V16.904H74.9683C75.1363 16.5307 75.323 16.1853 75.5283 15.868C75.7523 15.532 76.0137 15.2427 76.3123 15C76.6297 14.7573 76.9937 14.5707 77.4043 14.44C77.815 14.2907 78.3003 14.216 78.8603 14.216C79.8123 14.216 80.6897 14.4493 81.4923 14.916C82.295 15.364 82.8923 16.1107 83.2843 17.156H83.3403C83.6017 16.372 84.087 15.6907 84.7963 15.112C85.5243 14.5147 86.5043 14.216 87.7363 14.216C89.211 14.216 90.359 14.7013 91.1803 15.672C92.0203 16.624 92.4403 17.9773 92.4403 19.732V29H90.2003V20.124C90.2003 18.836 89.9483 17.8653 89.4443 17.212C88.9403 16.5587 88.1377 16.232 87.0363 16.232C86.5883 16.232 86.159 16.288 85.7483 16.4C85.3563 16.512 85.0017 16.68 84.6843 16.904C84.367 17.128 84.115 17.4173 83.9283 17.772C83.7417 18.108 83.6483 18.5093 83.6483 18.976V29H81.4083V20.124C81.4083 18.836 81.1563 17.8653 80.6523 17.212C80.1483 16.5587 79.3643 16.232 78.3003 16.232C77.8523 16.232 77.423 16.288 77.0123 16.4C76.6017 16.512 76.2377 16.68 75.9203 16.904C75.603 17.128 75.3417 17.4173 75.1363 17.772C74.9497 18.108 74.8563 18.5093 74.8563 18.976V29H72.6163Z" fill="white"/>
</svg>
