<svg width="551" height="122" viewBox="0 0 551 122" fill="none" xmlns="http://www.w3.org/2000/svg">
<path fill-rule="evenodd" clip-rule="evenodd" d="M60.9999 6.43203L6.43195 61L60.9999 115.568L115.568 61L60.9999 6.43203ZM62.6293 0.674907C61.7296 -0.224971 60.2704 -0.224968 59.3707 0.674911L0.674806 59.3706C-0.224935 60.2705 -0.224935 61.7295 0.674806 62.6294L59.3707 121.325C60.2704 122.225 61.7296 122.225 62.6293 121.325L121.325 62.6294C122.225 61.7295 122.225 60.2705 121.325 59.3706L62.6293 0.674907Z" fill="url(#paint0_linear_548_1099)"/>
<path fill-rule="evenodd" clip-rule="evenodd" d="M104.5 109.418C108.37 110.241 109.357 109.391 109.39 109.358C109.423 109.324 110.273 108.338 109.45 104.468C108.682 100.861 106.693 96.0327 103.397 90.2421C96.8442 78.7282 85.7361 64.4588 71.5734 50.2959C57.4105 36.1329 43.1413 25.0249 31.6271 18.4722C25.8367 15.1767 21.0081 13.1869 17.4011 12.4198C13.5308 11.5968 12.5443 12.447 12.5114 12.48C12.4783 12.513 11.6282 13.4995 12.4511 17.3697C13.2183 20.9769 15.208 25.8052 18.5036 31.5958C25.0561 43.1099 36.1641 57.3791 50.3272 71.5422C64.49 85.7048 78.7594 96.813 90.2733 103.366C96.0639 106.662 100.892 108.651 104.5 109.418ZM46.6338 75.2353C75.4257 104.027 105.176 120.958 113.083 113.051C120.989 105.145 104.058 75.3945 75.2666 46.6026C46.4748 17.8108 16.7249 0.880063 8.81822 8.7868C0.911383 16.6935 17.8421 46.4436 46.6338 75.2353Z" fill="url(#paint1_linear_548_1099)"/>
<path fill-rule="evenodd" clip-rule="evenodd" d="M109.45 17.3697C110.273 13.4995 109.423 12.513 109.39 12.48C109.357 12.447 108.37 11.5968 104.5 12.4198C100.892 13.1869 96.0639 15.1767 90.2733 18.4722C78.7594 25.0249 64.49 36.1329 50.3272 50.2959C36.1641 64.4588 25.0561 78.7282 18.5036 90.2421C15.208 96.0327 13.2183 100.861 12.4511 104.468C11.6282 108.338 12.4783 109.324 12.5114 109.358C12.5443 109.391 13.5308 110.241 17.4011 109.418C21.0081 108.651 25.8367 106.662 31.6271 103.366C43.1413 96.813 57.4105 85.7048 71.5734 71.5422C85.7361 57.3791 96.8442 43.1099 103.397 31.5958C106.693 25.8052 108.682 20.9769 109.45 17.3697ZM75.2666 75.2353C104.058 46.4436 120.989 16.6935 113.083 8.7868C105.176 0.880063 75.4257 17.8108 46.6338 46.6026C17.8421 75.3945 0.911383 105.145 8.81822 113.051C16.7249 120.958 46.4748 104.027 75.2666 75.2353Z" fill="url(#paint2_linear_548_1099)"/>
<path fill-rule="evenodd" clip-rule="evenodd" d="M29.3385 91.2939L10.1361 72.0915L13.8293 68.3983L33.0317 87.6009L29.3385 91.2939Z" fill="url(#paint3_linear_548_1099)"/>
<path fill-rule="evenodd" clip-rule="evenodd" d="M85.4101 30.8126L72.7745 18.2158L76.4621 14.517L89.0976 27.1138L85.4101 30.8126Z" fill="url(#paint4_linear_548_1099)"/>
<path fill-rule="evenodd" clip-rule="evenodd" d="M34.7086 25.3533L45.1166 14.9071L48.8166 18.5935L38.4089 29.0396L34.7086 25.3533Z" fill="url(#paint5_linear_548_1099)"/>
<path fill-rule="evenodd" clip-rule="evenodd" d="M92.3401 84.3036L102.748 73.8579L106.448 77.5444L96.0401 87.9905L92.3401 84.3036Z" fill="url(#paint6_linear_548_1099)"/>
<path d="M71.2767 60.9542C71.2767 66.6385 66.6686 71.2465 60.9843 71.2465C55.2998 71.2465 50.6918 66.6385 50.6918 60.9542C50.6918 55.2697 55.2998 50.6616 60.9843 50.6616C66.6686 50.6616 71.2767 55.2697 71.2767 60.9542Z" fill="url(#paint7_linear_548_1099)"/>
<path d="M188.317 73.887H171.359L168.553 82H159.586L174.897 39.361H184.84L200.151 82H191.123L188.317 73.887ZM185.999 67.055L179.838 49.243L173.677 67.055H185.999ZM237.777 48.206V82H229.176V77.73C228.078 79.194 226.634 80.353 224.845 81.207C223.096 82.0203 221.185 82.427 219.111 82.427C216.468 82.427 214.129 81.878 212.096 80.78C210.063 79.6413 208.456 77.9943 207.277 75.839C206.138 73.643 205.569 71.0403 205.569 68.031V48.206H214.109V66.811C214.109 69.495 214.78 71.569 216.122 73.033C217.464 74.4563 219.294 75.168 221.612 75.168C223.971 75.168 225.821 74.4563 227.163 73.033C228.505 71.569 229.176 69.495 229.176 66.811V48.206H237.777ZM254.743 53.452C255.841 51.6627 257.264 50.2597 259.013 49.243C260.802 48.2263 262.836 47.718 265.113 47.718V56.685H262.856C260.172 56.685 258.139 57.3153 256.756 58.576C255.414 59.8367 254.743 62.0327 254.743 65.164V82H246.203V48.206H254.743V53.452ZM285.871 82.549C282.618 82.549 279.69 81.8373 277.087 80.414C274.485 78.95 272.431 76.8963 270.926 74.253C269.462 71.6097 268.73 68.5597 268.73 65.103C268.73 61.6463 269.483 58.5963 270.987 55.953C272.533 53.3097 274.627 51.2763 277.27 49.853C279.914 48.389 282.862 47.657 286.115 47.657C289.369 47.657 292.317 48.389 294.96 49.853C297.604 51.2763 299.678 53.3097 301.182 55.953C302.728 58.5963 303.5 61.6463 303.5 65.103C303.5 68.5597 302.707 71.6097 301.121 74.253C299.576 76.8963 297.461 78.95 294.777 80.414C292.134 81.8373 289.165 82.549 285.871 82.549ZM285.871 75.107C287.417 75.107 288.86 74.741 290.202 74.009C291.585 73.2363 292.683 72.0977 293.496 70.593C294.31 69.0883 294.716 67.2583 294.716 65.103C294.716 61.8903 293.862 59.43 292.154 57.722C290.487 55.9733 288.433 55.099 285.993 55.099C283.553 55.099 281.5 55.9733 279.832 57.722C278.206 59.43 277.392 61.8903 277.392 65.103C277.392 68.3157 278.185 70.7963 279.771 72.545C281.398 74.253 283.431 75.107 285.871 75.107ZM318.305 53.452C319.403 51.6627 320.826 50.2597 322.575 49.243C324.364 48.2263 326.397 47.718 328.675 47.718V56.685H326.418C323.734 56.685 321.7 57.3153 320.318 58.576C318.976 59.8367 318.305 62.0327 318.305 65.164V82H309.765V48.206H318.305V53.452ZM332.231 64.981C332.231 61.565 332.902 58.5353 334.244 55.892C335.626 53.2487 337.477 51.2153 339.795 49.792C342.153 48.3687 344.776 47.657 347.664 47.657C350.185 47.657 352.381 48.1653 354.252 49.182C356.163 50.1987 357.688 51.4797 358.827 53.025V48.206H367.428V82H358.827V77.059C357.729 78.645 356.204 79.9667 354.252 81.024C352.34 82.0407 350.124 82.549 347.603 82.549C344.756 82.549 342.153 81.817 339.795 80.353C337.477 78.889 335.626 76.8353 334.244 74.192C332.902 71.508 332.231 68.4377 332.231 64.981ZM358.827 65.103C358.827 63.029 358.42 61.26 357.607 59.796C356.793 58.2913 355.695 57.1527 354.313 56.38C352.93 55.5667 351.446 55.16 349.86 55.16C348.274 55.16 346.81 55.5463 345.468 56.319C344.126 57.0917 343.028 58.2303 342.174 59.735C341.36 61.199 340.954 62.9477 340.954 64.981C340.954 67.0143 341.36 68.8037 342.174 70.349C343.028 71.8537 344.126 73.0127 345.468 73.826C346.85 74.6393 348.314 75.046 349.86 75.046C351.446 75.046 352.93 74.6597 354.313 73.887C355.695 73.0737 356.793 71.935 357.607 70.471C358.42 68.9663 358.827 67.177 358.827 65.103ZM388.23 60.65C388.23 56.4613 389.165 52.72 391.036 49.426C392.947 46.0913 395.529 43.509 398.783 41.679C402.077 39.8083 405.757 38.873 409.824 38.873C414.582 38.873 418.75 40.093 422.329 42.533C425.907 44.973 428.408 48.3483 429.832 52.659H420.011C419.035 50.6257 417.652 49.1007 415.863 48.084C414.114 47.0673 412.081 46.559 409.763 46.559C407.282 46.559 405.066 47.1487 403.114 48.328C401.202 49.4667 399.698 51.0933 398.6 53.208C397.542 55.3227 397.014 57.8033 397.014 60.65C397.014 63.456 397.542 65.9367 398.6 68.092C399.698 70.2067 401.202 71.8537 403.114 73.033C405.066 74.1717 407.282 74.741 409.763 74.741C412.081 74.741 414.114 74.2327 415.863 73.216C417.652 72.1587 419.035 70.6133 420.011 68.58H429.832C428.408 72.9313 425.907 76.327 422.329 78.767C418.791 81.1663 414.622 82.366 409.824 82.366C405.757 82.366 402.077 81.451 398.783 79.621C395.529 77.7503 392.947 75.168 391.036 71.874C389.165 68.58 388.23 64.8387 388.23 60.65ZM452.132 82.549C448.879 82.549 445.951 81.8373 443.348 80.414C440.745 78.95 438.692 76.8963 437.187 74.253C435.723 71.6097 434.991 68.5597 434.991 65.103C434.991 61.6463 435.743 58.5963 437.248 55.953C438.793 53.3097 440.888 51.2763 443.531 49.853C446.174 48.389 449.123 47.657 452.376 47.657C455.629 47.657 458.578 48.389 461.221 49.853C463.864 51.2763 465.938 53.3097 467.443 55.953C468.988 58.5963 469.761 61.6463 469.761 65.103C469.761 68.5597 468.968 71.6097 467.382 74.253C465.837 76.8963 463.722 78.95 461.038 80.414C458.395 81.8373 455.426 82.549 452.132 82.549ZM452.132 75.107C453.677 75.107 455.121 74.741 456.463 74.009C457.846 73.2363 458.944 72.0977 459.757 70.593C460.57 69.0883 460.977 67.2583 460.977 65.103C460.977 61.8903 460.123 59.43 458.415 57.722C456.748 55.9733 454.694 55.099 452.254 55.099C449.814 55.099 447.76 55.9733 446.093 57.722C444.466 59.43 443.653 61.8903 443.653 65.103C443.653 68.3157 444.446 70.7963 446.032 72.545C447.659 74.253 449.692 75.107 452.132 75.107ZM473.829 64.981C473.829 61.565 474.5 58.5353 475.842 55.892C477.225 53.2487 479.096 51.2153 481.454 49.792C483.813 48.3687 486.436 47.657 489.323 47.657C491.519 47.657 493.614 48.145 495.606 49.121C497.599 50.0563 499.185 51.317 500.364 52.903V36.86H509.026V82H500.364V76.998C499.307 78.6653 497.823 80.0073 495.911 81.024C494 82.0407 491.784 82.549 489.262 82.549C486.416 82.549 483.813 81.817 481.454 80.353C479.096 78.889 477.225 76.8353 475.842 74.192C474.5 71.508 473.829 68.4377 473.829 64.981ZM500.425 65.103C500.425 63.029 500.019 61.26 499.205 59.796C498.392 58.2913 497.294 57.1527 495.911 56.38C494.529 55.5667 493.044 55.16 491.458 55.16C489.872 55.16 488.408 55.5463 487.066 56.319C485.724 57.0917 484.626 58.2303 483.772 59.735C482.959 61.199 482.552 62.9477 482.552 64.981C482.552 67.0143 482.959 68.8037 483.772 70.349C484.626 71.8537 485.724 73.0127 487.066 73.826C488.449 74.6393 489.913 75.046 491.458 75.046C493.044 75.046 494.529 74.6597 495.911 73.887C497.294 73.0737 498.392 71.935 499.205 70.471C500.019 68.9663 500.425 67.177 500.425 65.103ZM548.782 64.371C548.782 65.591 548.701 66.689 548.538 67.665H523.833C524.037 70.105 524.891 72.0163 526.395 73.399C527.9 74.7817 529.75 75.473 531.946 75.473C535.118 75.473 537.375 74.1107 538.717 71.386H547.928C546.952 74.6393 545.082 77.3233 542.316 79.438C539.551 81.512 536.155 82.549 532.129 82.549C528.876 82.549 525.948 81.8373 523.345 80.414C520.783 78.95 518.77 76.8963 517.306 74.253C515.883 71.6097 515.171 68.5597 515.171 65.103C515.171 61.6057 515.883 58.5353 517.306 55.892C518.73 53.2487 520.722 51.2153 523.284 49.792C525.846 48.3687 528.795 47.657 532.129 47.657C535.342 47.657 538.209 48.3483 540.73 49.731C543.292 51.1137 545.265 53.086 546.647 55.648C548.071 58.1693 548.782 61.077 548.782 64.371ZM539.937 61.931C539.897 59.735 539.104 57.9863 537.558 56.685C536.013 55.343 534.122 54.672 531.885 54.672C529.771 54.672 527.981 55.3227 526.517 56.624C525.094 57.8847 524.22 59.6537 523.894 61.931H539.937Z" fill="white"/>
<defs>
<linearGradient id="paint0_linear_548_1099" x1="31.1442" y1="31.3824" x2="92.3613" y2="92.5995" gradientUnits="userSpaceOnUse">
<stop stop-color="#B579E7"/>
<stop offset="1" stop-color="#E857B0"/>
</linearGradient>
<linearGradient id="paint1_linear_548_1099" x1="36.1371" y1="58.227" x2="90.0189" y2="60.9538" gradientUnits="userSpaceOnUse">
<stop stop-color="#1DD9FF"/>
<stop offset="1" stop-color="#AA81F3"/>
</linearGradient>
<linearGradient id="paint2_linear_548_1099" x1="35.0235" y1="60.9539" x2="88.1755" y2="60.9539" gradientUnits="userSpaceOnUse">
<stop stop-color="#1DD9FF"/>
<stop offset="1" stop-color="#AA81F3"/>
</linearGradient>
<linearGradient id="paint3_linear_548_1099" x1="10.1361" y1="72.2002" x2="29.2298" y2="91.2939" gradientUnits="userSpaceOnUse">
<stop stop-color="#BF72DC"/>
<stop offset="1" stop-color="#D067CA"/>
</linearGradient>
<linearGradient id="paint4_linear_548_1099" x1="71.0459" y1="16.8213" x2="90.14" y2="35.9151" gradientUnits="userSpaceOnUse">
<stop stop-color="#BF72DC"/>
<stop offset="1" stop-color="#D067CA"/>
</linearGradient>
<linearGradient id="paint5_linear_548_1099" x1="47.9953" y1="12.0104" x2="32.7949" y2="27.2347" gradientUnits="userSpaceOnUse">
<stop stop-color="#B679E6"/>
<stop offset="1" stop-color="#B678E6"/>
</linearGradient>
<linearGradient id="paint6_linear_548_1099" x1="105.627" y1="70.9612" x2="90.4268" y2="86.1856" gradientUnits="userSpaceOnUse">
<stop stop-color="#E758B2"/>
<stop offset="1" stop-color="#E658B2"/>
</linearGradient>
<linearGradient id="paint7_linear_548_1099" x1="50.6918" y1="60.9542" x2="71.2767" y2="60.9542" gradientUnits="userSpaceOnUse">
<stop stop-color="#C46FD6"/>
<stop offset="1" stop-color="#E15BB6"/>
</linearGradient>
</defs>
</svg>
